<?xml version="1.0" encoding="UTF-8"?>
<!-- Created with Inkscape (http://www.inkscape.org/) -->
<svg width="136.98mm" height="53.096mm" version="1.1" viewBox="0 0 136.98 53.096" xmlns="http://www.w3.org/2000/svg" xmlns:xlink="http://www.w3.org/1999/xlink">
 <defs>
  <linearGradient id="linearGradient19522" x1="303.06" x2="302.22" y1="160.74" y2="325.15" gradientTransform="matrix(.26458 0 0 .26458 -13.922 -36.054)" gradientUnits="userSpaceOnUse">
   <stop stop-color="#737990" offset="0"/>
   <stop stop-color="#8e8178" offset="1"/>
  </linearGradient>
 </defs>
 <g transform="translate(-2.0095 -3.0805)">
  <path d="m46.763 3.2128a29.629 13.208 0 0 0-29.583 12.582 41.23 22.311 0 0 0-15.039 17.225 41.23 22.311 0 0 0 8.37 13.454 3.7482 4.1052 0 0 0-0.15968 1.1818 3.7482 4.1052 0 0 0 3.7481 4.1052 3.7482 4.1052 0 0 0 1.0015-0.15193 61.042 5.89 0 0 0 16.137 2.7208 41.23 22.311 0 0 0 12.133 1.001 41.23 22.311 0 0 0 1.3017-0.02429 61.042 5.89 0 0 0 29.576 0.73845 61.042 5.89 0 0 0 56.129-3.5822 6.7825 5.1761 0 0 0 6.3412-5.164 6.7825 5.1761 0 0 0-0.23875-1.3612 36.411 11.78 0 0 0 2.3802-4.1718 36.411 11.78 0 0 0-19.031-10.35 17.67 10.709 0 0 0 0.82579-3.2143 17.67 10.709 0 0 0-17.67-10.709 17.67 10.709 0 0 0-6.7474 0.817 19.276 16.778 0 0 0-19.133-14.739 19.276 16.778 0 0 0-10.843 2.9063 29.629 13.208 0 0 0-19.5-3.2634z" fill="url(#linearGradient19522)" opacity=".8" stroke="#8e8178" stroke-width=".26458"/>
 </g>
</svg>
